<?xml version="1.0" encoding="utf-8"?>
<!-- Generator: Adobe Illustrator 27.4.1, SVG Export Plug-In . SVG Version: 6.00 Build 0)  -->
<svg version="1.1" id="Calque_1" xmlns="http://www.w3.org/2000/svg" xmlns:xlink="http://www.w3.org/1999/xlink" x="0px" y="0px"
	 viewBox="0 0 1752 2500" style="enable-background:new 0 0 1752 2500;" xml:space="preserve">
<style type="text/css">
	.st0{fill:#C4151C;stroke:#C4151C;stroke-width:2.8;stroke-miterlimit:33.89;}
	.st1{fill:none;stroke:#000000;stroke-width:2.8;stroke-miterlimit:33.89;}
	.st2{fill:#FFFFFF;stroke:#C4151C;stroke-width:2.8;stroke-miterlimit:33.89;}
</style>
<path class="st0" d="M761.8,1542.3l-4.3,10.6l2.9,19.2l9.8,43l17,56.7l14.2,33.8l19,43.2l13.5,25.4l20.7,37.5l24.7,41.8l19.5,26.9
	l16.3,21.8l0.7,12l-2.2,9.8l-9.1,3.6l-27.4,1.4l-48-2.9l-39.6-5.1l-34.8-6.2l-42.3-12l-21.4-9.4l-14.2-6.2l-16.1-2.9l-18.5,0.7
	l-9.8,4.3h-13.5l-31.9-5.1l-18.2-6.2l-19.9-1.4l-31.7-0.7l-24-2.2H471l-21.8,1.4l-14.9,6.2l-10.6,2.9l-3.6,5.1l0.7,9.9l10.1,16.3
	l19,26.2l11.3,4.8l17.8,12.7l20.4,11.3l22.1,7.2l31.7,0.7l28.3-2.9l24-5.5l20.4-6.5l8.6,4.3l4.1,8.4l7.2,2.2l17.5-0.7l22.1,1.4
	l11.3,3.6l13.4-3.6l43.7,5.5l29.8,4.3l48.7,10.6l35.5,10.6l35.1,12l30.9,14.2l12,8.6l32,1.4l17-4.3l9.1-18.5l9.8-22.6l-2.8-18.2
	l-12-22.8l-16.1-33.1l-12.8-34.6l-9.4-38.9l-4.1-33.4v-32.4l3.4-38.2l4.3-19.2l-5.1-16.3l-10.5-8.4l-21.1-15.6l-14.9-10.6L910,1659
	l-7-21.8l-13.2-21.4l-14.2-18.2l-17.8-17l-22.6-17.1l-25.5-19l-13.5-6.5l-13.4-4.1l-11.3,1.9L761.8,1542.3L761.8,1542.3z"/>
<path class="st0" d="M679.7,110.6l-0.2,9.4l-9.8,2.2l-12.7-1.7l-19.2,4.1l-14.4,4.6l-11.5,0.7l-3.6,5.1l4.1,7l8.7,1.9l8.2-2.4
	l9.4-4.1l9.6-0.5l20.4,1l15.6,4.8l18.5,4.6l27.1,12.2l2.4,5.8l-2.9,4.6l-12.7,4.6l-7.7,3.6l-13.7,9.1l-20.9,11.1l-25.5,18l-29,13.2
	l-23,15.1l-20.9,9.1l-19.7,4.8l-17.3,0.5l-23.8,0.5l-9.1,2.4l-5.3,11l-4.1,12l-4.6,8.2l-11.5,17.3l-11,19.2l-7.5,9.4l-0.7,10.8
	l0.7,15.1v16.1l9.8,8.9l8.6,4.6l10.3-0.7l16.8-4.6l19-5.8l25.7-10.3l10.3,0.5l2.4,6.5l-2.4,6.2l-8.7,4.6l-26.2,9.8l-19.7,5.8
	l-3.8,6.5l-0.7,7l6.5,5.8l13.7,1.7h11l13.9-0.5l15.1-3.6l21.9-11.5l14.4-2.9l12.2-2.4l9.4,3.1l13.7-0.7l13.5,1.7l11,6.5l17.3,1.7
	l22.6,7l12.2,1.7l19-3.4l24.3,1.7l10.6,4.1l5.8,9.8l-1.2,12.7l-2.9,15.6l-5.8,18l-8.2,22.6l-8.2,24.7l-8.7,22.6l-5.8,15.6
	l-19.7,30.7l-23.8,30L666,661.4l-27.1,27.1l-25,21.1L598,726.5l-8.4,27.6L577.9,768L563,778.6l-18,14.9l-27.6,16.8L494.1,822
	l-14.9,17l-10.6,13.7l-10.6,6.5l-14.9,7.5l-9.6-2.2l-19-8.7l-21.1-13.7l-31-13.7l-34.8-18.2l-18-13.7l-22.3-18l-24.5-20.2l-26.4-9.6
	l-23.3-4.1l-29.8,6.2l-21.1,11.8l-18.2,12.7l-9.4,23.3l-6.5,18l-7.4,27.6l-8.4,16.8l-8.4,25.7l-1.2,30.7l-7.4,18l-8.4,28.6
	l-7.4,28.6l-13.7,26.7l-7.5,26.4l-4.3,32.9l-11.8,27.6l-7.5,15.8l-1,15.8l-1,26.7v46.6l-5.3,19.2l3.1,16.8l-1.2,27.6l9.6,22.1
	l7.5,5.3l13.7-4.3l12.7-11.5l18.2-22.1l15.8-25.4l6.2-21.1l-4.1-17l-5.3-21.1l-6.5-25.4l-6.2-26.6l-3.4-20.2v-19l4.3-21.4l10.6-32.7
	l10.6-17l9.6-8.6l7.4-11.5l13.7-1.2l6.5-4.1l9.6-8.7l10.6-9.4l9.6-12.7l4.1-14.9l3.4-12.7l1-17l3.1-14.9l7.4-9.4l7.4-2.2l9.6,3.1
	l13.7,7.5l14.9,17l15.8,23.3l18,21.1l19.2,17l17,13.7l16.8,7.4l5.3,10.6l-5.3,5.3l-18-4.1l-25.5-2.2l-32.9-6.5l-31.7-6.2l-38.2-1.2
	l-22.3,1.2l-17,10.6l-18,15.8l-14.9,25.5l-11.5,28.8l-1.2,21.1l6.5,38.2l14.9,48.7l7.4,38.2l9.4,37.2l6.5,26.2l3.1,24.5l8.4,27.6
	l6.5,42.3l6.2,14.9l16.1,12.7l14.9,14.9l16.8,25.5l11.8,29.8l18,26.4l26.4,25.4l19.2,11.8l12.7,1l10.6-3.1l6.5-14.9l7.2-12.7l4.3-18
	v-41.3l-5.3-11.8c-1,0-1-7.4-1-8.4l-2.2-7.4l-8.6-12.7l-15.9-15.9l-29.5-12.7l-10.8-3.4l-1.9-18l1-11.5l-20.2-23.3l-12.7-29.8
	l-10.6-42.3l-8.6-39.1l-14.6-30.7l-5.3-37.2l8.4-22.3l14.9-8.4h11.5l17,14.9l24.5,14.9l25.5,9.4l61.5,29.8l29.8,17v15.8l27.4,15.8
	l35.1,11.8h73.2l-5.3,13.7l-3.1,7.4l9.4,17.8l18,26.7l28.8,28.6l34.8,38.2l29.8,26.4l55.7,42.7l45.1,24.2l33.8,18l43.5,29.5
	l40.1,28.6l34.6,29.3l36,48.7l1.7,20.4l8.2,21.1l22.1,15.8l20.2,7.9l12.5-1.7l9.9-9.6l14.2-15.1l3.4-20.4l16.8-29.1l3.6-22.3
	l2.7-24.7l1.7-19.5l5.5-12.2l11.3-5.5h10.8l0.7,8.2l-7.9,8.6l-7,18.7l-5.3,11.5v14.2l-1.9,30l-4.3,15.1l-13.2,22.8l-17.8,29.3
	l-17.7,31.9l-10.5,41.5l-5.3,43.5l5.3,48.5l7,28.3l16.8,37.2l21.4,44.2l16.8,34.6l23,36.3l27.3,33.6l5.3,11.5v7.9l-3.6,9.8
	l-9.6,15.9l-15.1,21.1l-31,39.9l-31,33.6l-28.3,31l-12.2,7.2l-25,9.6l-14.9,14.2l-7.9,16.1l-17.8,22.1l-20.1,22.1l-24.7,25.7
	l-15.1,26.4l-8.9,26.6l-5.3,22.1l1,17.8l10.6,11.3h38.9l16.8-1.7l17.6-10.6l23-10.6l3.6-8.9h7.9l12.2-5.3l11.5-10.8l6.2-42.3
	l-3.6-8.9l-1.7-8.9l6.2,1.7l6.9,1.9l7.2-5.3l11.5-7.2l12.2-15.9l15.1-21.4l7.9-19.4l1.7-15.9l9.9-7.2l14.2-7.9l11.5-7l9.6-19.4
	l20.4-21.4l38.2-35.3l29-19.4l29.3-16.1l6.9-7l2.7-7.2l6.2-7.9l-4.3-10.6l-0.9-19.5l-3.9-18.2l-4.6-10.6l-10.1-17.3L1175,2022
	l-7.9-15.1l-1.7-15.9v-21.3l3.6-12.2l9.6-32.9l9.8-15.8l10.6-6.2l19.4-12.2l23.1-19.7l31-26.4l21.1-22.1l21.3-24.7l22.1-25
	l15.9-28.1l13.2-24l12.5-27.3l8.9-30.3l2.7-28.1l1.7-21.4l7.2-7l7.9-1.9l7,4.6l6.2,14.9l1.7,20.4l2.9,19.4l-1.9,13.2l-1.7,20.4v43.5
	l5.3,34.3l6.2,8.9l5.3-0.7l2.6-6.2l-3.6-14.2v-24l7.2-20.2l3.4-29.3l3.6-20.4l4.6-9.6h5.3l4.3,4.3l4.3,16.8l3.6,16.1l-1.7,25.4
	l-5.3,34.6l-16.1,33.6l-14.9,31.9l-8.9,27.4l-1.7,16.8l1.7,19.4l6.2,18.7h11.5l6-8.2l-3.4-8.9l-2.6-15.9l10.6-14.2l12.3-16.8
	l8.2-15.8l19.4-31l15.9-28.3l7-31l6.2-40.8V1653l-7.9-28.3l-15.9-22.1l-1.9-10.6l7.2-3.6l8.9,4.3l11.5,14.2l14.2,25.7l6,30l3.6,39.9
	l8.9,27.6l1,0.7l12.2,27.4l7.9,2.9l3.6-7.2l-0.9-4.3l-6-20.4l-0.9-20.4l0.9-30l5.3-33.6v-16.8l-1.9-14.2l-14.2-28.3l-12.2-20.4
	l4.3-7.9l16.8-3.6l23-10.6l24.7-13.2l22.1-19.4l28.3-38.2l16.1-31.7l13.2-30.2l4.3-48.5l1-43.5l-7-53.8l-8.2-38.9l-7-39.9l-4.3-41.5
	l3.4-26.4l7.2-32.9l14.9-32.7l21.3-33.6l7.9-21.4l1.7-10.6l-6.9-9.6l-9.8-4.6v15.1l-7.9,8.9l-14.2,21.1l-7.9,5.3l-22.1,26.6
	l-8.9,14.2l-10.6,23.8l-11.5,1.9l-10.6-6.2l-6.2-28.3l1.7-32.7l7.2-30.3l17.6-28.3l35.5-53.1l21.2-43.2l2.6-30.3l-3.4-9.6l-6.2,6.2
	l-10.6,26.4l-16.1,26.7l-23.8,19.5l-27.3,26.4l-40.8,47.8l-7.9-0.7l-2.6-8.2l-1-19.5l2.6-36.2l12.5-40.6l22.1-45.1l29.3-36.2
	l36.2-31l3.4-7.2l-4.3-3.4l-18.5,9.6l-15.2,9.8l-25.7,22.1l-31.9,28.3l-22.8,31l-22.3,40.6l-12.2,32.9l-3.6,32.7l-1.7,44.2
	l10.6,46.1l10.6,39.9l20.4,62.7l13.2,75.2l7.9,57.4v31l-3.4,32.7l-5.2,26.7l-9.9,30l-37.2,46.8l-37.9,34.6l-48.7,27.4l-46.8,2.6
	l-6.2-22.8l-16.8-32.9l-23.1-31.7l-15.1-18.7l-20.2-27.4l-43.5-41.5l-44.2-36.2l-19.4-15.2l-61-41.3l-87.6-73.5l-47.8-59.3
	l-52.3-85.7l-14.2-51.4l3.6-31.9l7.2-6.2l18.5,12.5l29.3,14.2l23.8-1l27.3,12.5l29.3,17.8l15.1,12.2l19.5,13.5l20.2,2.7l4.6-8.9
	l-5.3-1l-6.2,2.7l-9.8-6.2l-8.7-13.2l-12.5-20.4l-24-22.1l-23.8-8.9l-13.2-2.7l2.7-7h18.5l21.4,7l31,20.4l14.2,6.2l5.3-7.2
	l-8.9-12.2l-24-21.4l-37.2-19.4l-44.9-17.5l-8.9-7.2l8.9-6.2l20.2,9.8l37.2,6.2l39.8,15.8l21.1,10.6l37.2,5.3l26.7-3.6l14.9-7
	l20.4-12.5l8.9-8.6l1-6.2l-8.3,0.7l-7.9,8.2l-26.4,8.7l-23.1,3.6l-19.5-2.7l-18.7-14.9l-16.8-19.7l-20.2-14.9l-30.2-6.2l-29.1-9.8
	l-12.5-7.9l1-7l11.5,1.7h25.7l25.7-1.7h26.4l14.2-2.7l11.5,9.6l18.5,4.6h15.1l7-5.3l-12.2-3.6l-15.1-9.8l-15.9-14.9l-25.7-13.5
	l-21.1-2.7l-19.4-2.7l-7.2-4.3l14.2-7.9h23l17.8,5.3l17.5,8.9l28.3,12.2l28.3,1l15.1-7.2l4.3-9.6l-11.5-5.3l-23.8-1l-20.4-7
	l-17.7-15.1l-19.5-9.8l-25.7-4.3l-22.1-7.9l-9.6-12.5l1.7-6.2l14.2,2.9l17.8,5.3l10.6,7.9l15.1,1.7l1.7-7.9l-15.8-12.5l-4.6-11.3
	l21.3,3.4l20.2,10.6l25.7,2.9l9.9,18.5l26.4,15.8l1.4-0.2l5.8-2.4l7-4.3l-3.4-5.3l-9.9,0.7l-8.9-12.2l-17.8-27.4l-31-27.6
	l-31.7-14.2l-8.9-10.6l-19.5-23l-17.8-9.6l-2.6-8.9l7.9-5.3l18.7,4.3l37,10.6l17.8,6.2l11.5,16.1l18.5,9.6h14.2l18.7,5.3l20.4-3.6
	l7.9-7l-11.5-9.8l-16.8-4.3l-19.5-2.7l-11.5-9.8l-15.1-22.1l-3.6-14.2l-19.5-17.5l-21.1-13.5l-24-14.9l-26.4-24.7l-1.7-7.2h6
	l34.6,27.4l35.3,20.4l18.7,14.2l23.8,22.1l21.3,11.5l12.3,3.6l6.2-9.8l-8.9-3.4l-18.5-16.8l-5.3-18.7l-19.4-21.1l-16.1-13.5
	l-7.9-20.2l-27.3-40.8l-37.2-32.7l-1.7-10.6l13.2,1.7l18.7,9.6l30,12.5l31,1.7l23.1,10.8l24.7,4.3l21.1-6.2l-1.7-8.9l-24-5.3
	l-21.1-9.6l-42.5-20.4l-23-12.5l-12.3-14.9l4.3-5.3l6.2,4.3l9.6,3.6l12.5,1h20.4l17.5-1.9l26.7-1.7l20.4,7.9l21.1,15.1l8.9,2.6
	l1-7.9l-7.2-7.2l-21.1-19.5l-32.9-16.8l-23.8-2.6l-45.1-2.6l-10.6-12.5l-23-23l-25.7-17.5l-9.6-8.9l7.9-6.2l12.2,5.3l22.1,11.5
	l25,8.9l33.6,7.9h29.1l24,26.6l19.5,11.5l7-7.2l-26.4-38.9l-41.5-30l-34.6-8.2l-29.3-30.7l-25.7-15.1l-35.3-8.9l19.5-16.8l34.6-11.5
	l25.7-7.9l6-7.9l-3.4-6.2l-14.2-3.6l-13.4-2.6l-99.9,1.9l-17.8-19.7l-20.2-13.2l-25.7-11.5l-33.6-5.3h-29l-7.9-10.6l-27.4-29.3
	l-32.9-30l-20.2,33.6l-1,10.6l9.6,12.5l1,10.6l-7,6.2l-22.3,1.7L741,101.2l-39.9-8.6l-18.5,0.7l-30.2,6.2l3.6,10.6l16.8-0.7
	L679.7,110.6L679.7,110.6L679.7,110.6z"/>
<path class="st0" d="M787,99.6l-1.9-20.4l-29-35.3l-8.9-2.7l-6.2,8.9l1,10.6l-9.8,8.9l-1,12.3l11.5,6.2l16.1,11.5H787L787,99.6z"/>
<path class="st1" d="M730.3,76.5l0.7-1.7"/>
<path class="st2" d="M1033.6,1217l-38.9-50.4l-33.6-49.5l-25-38.9l-9.6-26.7l-5.3-25.7l-6.3-17.5l-9.8-4.5l-9.6,2.6l-3.3,16.8
	l7,29.3l16.8,42.5l21.1,34.3l24,30.3l26.4,26.4l15.8,15.1L1033.6,1217L1033.6,1217L1033.6,1217z M503.7,314l-9.4,13l-3.9,13.2
	l1.7,9.4l4.6,2.9l13.2-2.9l9.8-5.5l7-7l3.8-13l-3.8-6.2l-8.4-7l-7-0.7L503.7,314L503.7,314L503.7,314z M755.8,279.2h10.8l10.1-3.8
	l0.7-10.1l-3.8-11.5l-4.6-10.8l-9.1-6.2l-11.8-2.2l-16.1,0.7l-10.1,8.4l-4.6,9.4l3.1,8.4l10.8,6.2l11.5,6.2L755.8,279.2L755.8,279.2
	L755.8,279.2z M1621.3,1219.9l-6.2,6.2l1.2,11.3l1.9,20.2l2.2,21.4l1.4,18.5l-0.9,21.1l-1,23.5l-4.3,21.1l-5.1,18.5l-8.6,18
	l-11.3,18.5l-11.5,18l-12.2,16.6l-11.3,14.9l-6.2,11.3l-4.6,10.3l0.9,7.7l5.8,2.6l10.8-2.6l21.1-20.2l18.5-21.6l12.3-17.3l10.8-20.1
	l7.2-18.5l6.3-21.1l4.5-24.7l0.5-11.3v-45.1l-3.6-22.3l-5.1-23.3l-6.2-19.4l-3.1-9.8L1621.3,1219.9L1621.3,1219.9L1621.3,1219.9z
	 M689.3,1365.1l12.3,13.7l40.3,35.1l22.3,19.9l19.9,18l16.1,15.1l3.1,5l2.2,3.6l-6.2-0.5l-16.1-10.1l-27.1-18l-42-28.3l-17-11.5
	l-18-14.1l-19.7-18l-14.4-11.3l-17.3-16.8l-11.3-11.8l-7-10.8l-2.6-13l0.5-12l4.5-4.6l7.9,0.5l12.5,7.5l13.4,13l9.9,12l10.6,10.6
	l10.3,12.7L689.3,1365.1L689.3,1365.1L689.3,1365.1z M598.3,820.8l0.5-6.5l4.3-4.8l15.1-6.2l31.5-9.8l31.5-3.8h19.2l15.8,3.4
	l14.9,7.5l11.8,11.5l0.7,6.5l-1.4,4.6l-5,1l-7.7-1l-11.8-3.4l-11-3.3l-13.7-1.5h-17l-14.4-0.2l-12.7,1.2l-14.2,2.4l-11.3,3.1
	l-11,2.4l-7.2,0.5l-5-0.7L598.3,820.8L598.3,820.8L598.3,820.8z M1001.7,1362.7l-4.6,12.7l-1.9,10.1l-3.8,18.3l-1.2,14.6l3.4,4.1
	l7,0.9l3.6-2.9l1.7-7.7l5.3-11.1l5.2-6l5.8-5.3l3.6-8.4l-1-14.2l-5-7.4l-2.9-2.7h-6.7l-5,1L1001.7,1362.7L1001.7,1362.7
	L1001.7,1362.7z M1011.5,1799.9h-4.6l-3.6-10.8l-0.2-12.3l2.6-16.8l6-23l9.9-14.2l8.9-11l7.9-1l2.2,7.2l-4.8,15.4l-6.8,18.7
	l-3.3,9.1l-6.2,14.2l-4.8,16.6l-1.4,4.8L1011.5,1799.9L1011.5,1799.9L1011.5,1799.9z M1321,1588.2l-5.7,7.2l0.9,11.5l10.1,13.9
	l1.5,15.1l2.3,4.3l4.6,1.2l5-2.9l1.5-6.7l2.4-7.4l1-7.9v-10.6l-1.5-7.9l-5.5-7l-4.8-4.3l-5.8-0.5L1321,1588.2L1321,1588.2z
	 M879.4,2388.4l-9.8,9.8l-3.6,7.2l-1.2,6.2l1,5l3.1,2.4h2.9l6.7-1.4l7-4.6l4.3-6.5l3.6-6.9l2.2-8.9l-0.7-5l-2.7-2.2l-5.3,0.2
	L879.4,2388.4L879.4,2388.4L879.4,2388.4z M951.7,2283.3l-8.2,5.1l-4.1,5.1l-0.5,4.3l2.4,4.3l4.1,1.2l5.5-1.9l4.5-2.6l3.7-5.1
	l2.2-5.3l-0.8-4.3l-2.9-1.7L951.7,2283.3L951.7,2283.3L951.7,2283.3z M1087.1,2148.5l-33.2,33.4l-27.3,29.5l-19.5,21.6l-1,6l2.2,3.6
	l4.6,0.2l7-4.6l12.5-11.3l15.9-14.4l17-17.8l16.1-15.6l14.2-16.6l10.6-15.6l2.8-7l-2.8-3.6l-3.4-0.7l-9.4,6L1087.1,2148.5
	L1087.1,2148.5L1087.1,2148.5z M1167.3,2099.8l-4.8,5l-1.4,4.1l0.8,4.1l3.3,1.9h2.9l4.3-4.8l4.8-4.3l2.1-3.4l-0.2-2.6l-2.4-1.2
	l-5.2-0.2L1167.3,2099.8L1167.3,2099.8L1167.3,2099.8z M1051.1,1917.1h-3.8l-1.7,2.2l-0.5,7.2v12l2.4,13l4.1,9.4l8.6,14.2l5.8,8.4
	l3.1,1.4l1.7-0.2l0.9-2.2l-2.2-11.1l-2.2-5.5l-0.2-4.1l-0.2-11.5l-2.6-14.4l-3.8-10.8l-5.3-6.2L1051.1,1917.1L1051.1,1917.1
	L1051.1,1917.1z M502.5,1901l-8.6,1.7l-7.5,2.4l-2.2,3.1l-0.2,4.3l3.8,4.8l2.6,2.2l5.8,1.7l6.5-0.2l3.1-1l3.8-4.6l2.2-5.1l1-4.1
	l-0.7-3.6l-3.1-1.9L502.5,1901L502.5,1901L502.5,1901z M748.4,1928.4l-21.1-6.7l-3.1,1.2l-0.7,5.1l2.4,4.6l16.1,5.3l22.6,7l28.6,7.2
	l12.5,1l13,0.7l12.5,2.2l14.2,2.4l8.2-0.5l2.7-3.4v-4.6l-2.2-2.9l-7.5-1.9l-13.2-2.9l-16.3-1.2l-17.3-2.7l-19.9-2.2l-12-1.7
	l-9.8-2.2L748.4,1928.4L748.4,1928.4L748.4,1928.4z M942.1,1935.4l-6.5,4.8l-1.2,4.6l1.2,4.1l3.8,1.7l7-1.7l4.8-3.8l2.6-4.8v-3.8
	l-1.7-2.2h-5.3L942.1,1935.4L942.1,1935.4L942.1,1935.4z M294.8,1478.2l-7-1.4l-2.9,0.7l-1.2,4.3l1.5,7.4l3.6,3.4l5,0.9l4.1-3.1
	l0.7-4.8l-0.7-4.1L294.8,1478.2L294.8,1478.2L294.8,1478.2z M153.6,1177.4l-2.6,18.7l0.5,19l2.9,16.3l5.5,17.3l5.5,11l3.8,8.4
	l2.4,4.6l3.1,2.7h1.7l1.4-2.2l1.2-6.5l-3.4-22.3l-2.4-13.7l-5.5-15.6l-4.6-14.6l-0.2-11.5l-2.6-11.3l-2.6-2.4h-2.6L153.6,1177.4
	L153.6,1177.4L153.6,1177.4z M354.4,1154.1l1.2-3.8l-1-4.8l-5.8-5.3l-11-5l-15.4-6.7l-13.2-6.5l-14.4-3.6l-8.4-3.1l-7.7,0.2l5.8,4.3
	l16.8,10.1l14.9,11.1l15.1,9.4l6.5,2.9l9.4,1.4L354.4,1154.1L354.4,1154.1L354.4,1154.1z M143.8,1034.3l-7.2,12.5l-0.2,8.6l2.9,2.4
	l4.3-1.7l4.3-6l2.9-6.7l2.2-5.1v-7.2l-3.4-2.2l-3.6,1.7L143.8,1034.3L143.8,1034.3z M831.2,514.5l-8.4,1.4l-11,10.6l-21.4,34.1
	l-22.6,43.7l-12.7,25.2l-14.2,29.3l-17.3,26.7l-4.3,10.1l0.7,3.6l4.6,0.2l14.2-5.5l20.4-21.4l26.9-37.7l16.8-31.2l15.1-25l11.3-29.5
	l5-18.5l0.5-10.3L831.2,514.5L831.2,514.5L831.2,514.5z M431.7,918.8l4.8,1.9l1.5,5.8l-3.6,20.7l-10.1,28.3l-8.9,27.1l-15.6,19.4
	l-7.9,6l-8.4,3.1l-4.8-3.4l-0.5-6.2l6.7-7.2l7-11.5l8.9-19.4l5.3-18.5l4.8-18.2l9.4-17.5l6.2-8.9L431.7,918.8L431.7,918.8
	L431.7,918.8z M145,858.8l-10.1,17.5l-4.6,24l-1.2,12.7v9.3l2.2,4.8l6.2-1.7l11.5-17.8l6.5-21.1l5.1-18.7l0.2-13.2l-2.9-4.3
	l-7.7,2.2L145,858.8L145,858.8L145,858.8z M272.3,895l0.7,5.3l2.9,3.6l6.5,6.5l7,5.8l8.1,4.6l5.8,3.6l2.4-0.2l1.2-2.2l-0.2-4.1
	l-3.1-4.6l-5-6l-8.4-5l-5.3-4.8l-4.5-4.1l-4.1-0.7l-2.4-0.2L272.3,895L272.3,895L272.3,895z M200.5,783.6l-12,1.4l-5.8,4.1l-1.9,6.5
	l1.7,4.8l6.7,2.6l11-1.2l11.5-4.3l3.4-5.5l-0.2-4.1l-3.8-3.6l-4.3-1.2L200.5,783.6L200.5,783.6L200.5,783.6z M800,892.9l7.9,2.2
	l2.4,4.3l1,9.6l1.2,10.1l-2.4,7.2l-5,2.9l-12.2,0.2l-8.2-1.9l-4.6-6l-3.8-4.8v-7.7l6-7.7l9.1-7.2L800,892.9L800,892.9L800,892.9z
	 M592.1,273.4l11-9.4l20.4-9.8l20.4-9.1l19.4-9.1l8.9-4.3l6.7-1l5.5,1.2l4.3,7l-2.9,5l-5.5,1.4l-6.7,1.7l-7.5,6.2l-16.6,10.1
	l-22.8,6.2l-14.2,3.6l-13.7,1L592.1,273.4L592.1,273.4L592.1,273.4z M551.3,314.2l-3.6,5.8l-0.5,4.3l3.1,3.6l3.8,1.9l4.8-0.2
	l2.4-1.2l1.7-5.5l-0.5-6.2l-1.2-3.6l-3.4-0.7h-3.8L551.3,314.2L551.3,314.2L551.3,314.2z M598.3,356.2l-3.4,0.2l-2.7,2.9l-0.5,4.8
	l1.4,3.9l2.7,1.4h4.6l3.6-1.7l0.7-3.6l-1.2-4.3l-1.7-2.6L598.3,356.2L598.3,356.2L598.3,356.2z M738.5,377.1l24-17l14.6-9.1l8.9-5.5
	h3.1l0.5,6.5l-6,4.8l-2.9,9.9l-7.5,11.5l-13.4,6.5l-13.7,3.1h-12.3l-2.2-4.1l3.1-4.3L738.5,377.1L738.5,377.1L738.5,377.1z
	 M819.4,385.5l7.9-10.1l9.1-8.6l8.2-5.5l6-0.5l4.1,2.6v7.5l-2.2,8.2l-9.1,8.6l-10.8,6.7l-11,2.9l-5.3-1.7l-0.7-4.3L819.4,385.5
	L819.4,385.5z M820.9,427.8l3.1-5.5l7.5-3.4l13-6.2l14.9-9.1l7-5l10.6-5.1l6.7,1.7v7.2l-2.7,6.5l-9.4,11l-13,6.2l-13,5.3l-13.5,0.2
	h-8.4L820.9,427.8L820.9,427.8L820.9,427.8z M794.9,196.6l-7.7,2.6l-1.7,5.3l3.1,5.8l8.4-0.5l7-2.6l5-5.8l-2.2-4.8l-6.7-2.4
	L794.9,196.6L794.9,196.6L794.9,196.6z M930.4,152.6l-4.3-3.1l3.1-5.8l12-1.2l6.5,2.1l5.1,2.6l0.2,4.3l-4.3,1.9l-6.7,0.5l-6.5-0.5
	L930.4,152.6L930.4,152.6z M950,180l7-0.2l5.3,1.2l2.6,1.7l-1,2.6l-3.8,4.6l-5.3,0.5l-6.2-0.9l-3.6-1.7l-2.6-3.1l3.1-2.6L950,180
	L950,180z M948.6,303.4l12.7-5.3l11-5.8l11.5-6.5l8.8-3.1l5.3-1.4l5.2-7.9l-3.8-3.6l-7.4,0.5l-8.9,1.9l-9.8,3.8l-7,0.5l-1-5.3
	l1-10.1l-4-4.1h-5.8l-3.8,4.8l-3.7,4.8l-5.7,6.2l-4.1,10.3v9.1l2,5l-0.5,5.3l3.6,1.2L948.6,303.4L948.6,303.4L948.6,303.4z
	 M943.8,797.8l6.2-0.5l5.3,4.3l0.2,3.6l-1.7,2.2l-4.8,1.4l-6.2-0.5l-4.1-4.1l1-3.6L943.8,797.8L943.8,797.8L943.8,797.8z
	 M953.9,783.9h7.2l4.8-5.3l-0.5-3.8l-4.8-3.1h-5.1l-3.8,1.2l-1.7,3.6v5.3L953.9,783.9L953.9,783.9L953.9,783.9z M961.8,738.5l5.2-1
	h5.1l3.1,2.6l0.7,4.1l-1.6,3.4l-4.8,2.4l-5,0.7l-5.3-1.2l-1.7-3.6v-4.3L961.8,738.5L961.8,738.5L961.8,738.5z M967.3,718.8l7.2,0.2
	l6.5-1.9l2.6-4.1l-1.9-5l-5.3-2.6l-6.3,1l-5.7,2.7l-1.2,4.3l0.2,2.9L967.3,718.8L967.3,718.8L967.3,718.8z M981.7,667.9l7.4-2.2h5.8
	l2.6,3.1l-1,5.5l-3.6,4.8l-3.4,4.3l-6.7,1.4h-6.7l-5.8-2.9l-0.5-4.6l4.1-4.3l3.1-3.6L981.7,667.9L981.7,667.9L981.7,667.9z
	 M989.2,630l7.4-1l6.7,1.4l2.9,4.1v4.1l-3.1,5l-5.5,1l-5.8,1.5l-7.2-0.2l-3.1-3.6l0.5-5.3l2.4-3.6L989.2,630L989.2,630L989.2,630z
	 M995.9,617.2h7.2l5.8-1.9l7.4-3.1l1-6.2l-2.6-5l-6.3-2.2l-6.5,0.2l-4.6,1.9l-4.1,2.2l-4.8,4.3l-1,4.6l2,3.6l3.6,1.2L995.9,617.2
	L995.9,617.2z M64.1,1226.8l6.2,0.7l1.7,6.2l-4.3,5.3l-7.2-1.7l-3.6-7L64.1,1226.8L64.1,1226.8z M990.9,572.6l11.5-6l5.5-1.2
	l6.8,0.7l2.6,2.4v2.7l-2.6,4.3l-4.6,3.8l-6.7,2.4l-7.9,0.7l-6.5-1l-1.7-3.8l1-3.1L990.9,572.6L990.9,572.6L990.9,572.6z
	 M1001.2,553.3l8.4-3.6l3.4-3.8l1.7-3.8v-3.6l-1.4-2.2l-3.6-0.2l-5,0.5l-5.1,1.2l-4.3,2.6L993,543l-0.8,4.6l1,4.1l3.8,1.2
	L1001.2,553.3L1001.2,553.3L1001.2,553.3z M1003.1,520.2l7.2-2.6l5.3-3.6l1.2-3.1l0.8-5.3l-1.2-3.4l-3.4-1l-5.1,0.2l-6,1.2l-4.1,2.9
	l-2.9,2.9l-0.5,4.8l0.7,3.8l3.9,2.2L1003.1,520.2L1003.1,520.2L1003.1,520.2z M1003.1,434.5l6-0.2l3.6,1.2l1,3.1l-2,3.1l-3.1,3.4
	l-5.1,1.2h-5.3l-3.4-3.1v-3.6l3.2-3.1L1003.1,434.5L1003.1,434.5L1003.1,434.5z M1003.5,486.1l7.5-3.6l5.7-5l0.5-7.4l-0.5-4.6
	l-3.8-2.2l-4.3-1.2l-3.6,0.2l-2,2.4l-1,3.4l-1,4.3l-2.2,1.4h-4.1l-1.2,2.4l0.5,4.3l3.1,3.9l3.1,1.2L1003.5,486.1L1003.5,486.1z
	 M1004.5,408.6l5.2-3.6l5.5,0.2l3.3,4.1l-0.7,4.1l-2.6,3.6l-4.3,1.7l-4.1,1l-3.6,0.5l-4.8-0.5l-1.2-2.9l1.2-3.8l2.8-2.6
	L1004.5,408.6L1004.5,408.6L1004.5,408.6z M1005.5,389.4l4.3-1.7l4.5-4.1l0.3-3.9l-0.5-4.1l-2.9-1.7l-4.5,0.7l-2.9,1.7l-3.1,3.4
	l-0.2,4.1v3.9l2.2,1.2L1005.5,389.4L1005.5,389.4L1005.5,389.4z M995.2,350.9l2.9-1.4l3.8-0.2l3.2,1.9l0.7,2.9l-1.2,4.3l-3.2,2.4
	l-2.8,1.7l-3.8,0.5l-3.1-1.9l-0.7-3.4l1.4-2.9L995.2,350.9L995.2,350.9L995.2,350.9z"/>
</svg>
