<?xml version="1.0" encoding="UTF-8"?><svg id="Calque_1" xmlns="http://www.w3.org/2000/svg" viewBox="0 0 1752 2500"><defs><style>.cls-1,.cls-2,.cls-3{stroke:#000;stroke-miterlimit:33.89;stroke-width:2.8px;}.cls-2{fill:none;}.cls-3{fill:#fff;}</style></defs><path class="cls-1" d="m761.79,1542.3l-4.33,10.58,2.89,19.2,9.84,42.97,17.04,56.67,14.16,33.85,18.96,43.22,13.45,25.45,20.65,37.46,24.72,41.75,19.46,26.91,16.32,21.84.73,12.01-2.15,9.84-9.12,3.59-27.38,1.44-48.02-2.87-39.61-5.06-34.81-6.24-42.27-12-21.36-9.36-14.16-6.24-16.1-2.89-18.48.73-9.83,4.32h-13.45l-31.93-5.05-18.25-6.24-19.92-1.44-31.7-.7-24.01-2.18h-22.09l-21.84,1.44-14.89,6.23-10.57,2.89-3.61,5.05.73,9.86,10.08,16.3,18.98,26.19,11.28,4.79,17.77,12.74,20.4,11.3,22.09,7.19,31.7.73,28.33-2.89,24.01-5.5,20.42-6.49,8.64,4.32,4.09,8.39,7.2,2.17,17.52-.73,22.09,1.45,11.3,3.59,13.44-3.59,43.7,5.49,29.77,4.33,48.74,10.58,35.53,10.55,35.07,12.02,30.93,14.16,12.02,8.64,31.95,1.44,17.03-4.32,9.12-18.5,9.83-22.56-2.83-18.25-12.01-22.82-16.08-33.14-12.76-34.57-9.36-38.91-4.06-33.36v-32.41l3.36-38.17,4.33-19.22-5.06-16.3-10.55-8.4-21.13-15.6-14.93-10.57-2.83-20.42-6.98-21.84-13.23-21.38-14.15-18.24-17.76-17.03-22.58-17.07-25.45-18.98-13.45-6.47-13.44-4.07-11.28,1.91-9.84,6.49Z"/><path class="cls-1" d="m679.68,110.61l-.23,9.36-9.84,2.17-12.72-1.67-19.21,4.07-14.4,4.57-11.53.73-3.61,5.05,4.09,6.97,8.65,1.92,8.16-2.4,9.36-4.09,9.61-.48,20.4.96,15.6,4.8,18.48,4.57,27.13,12.24,2.41,5.77-2.88,4.55-12.72,4.57-7.68,3.61-13.68,9.12-20.88,11.05-25.45,18.02-29.05,13.2-23.05,15.14-20.88,9.13-19.69,4.8-17.29.48-23.78.48-9.13,2.4-5.28,11.05-4.09,12.01-4.57,8.16-11.53,17.29-11.05,19.2-7.45,9.36-.73,10.8.73,15.12v16.08l9.84,8.88,8.65,4.57,10.32-.73,16.81-4.57,18.96-5.76,25.69-10.32,10.32.48,2.4,6.49-2.4,6.24-8.65,4.57-26.17,9.84-19.69,5.76-3.84,6.49-.73,6.97,6.49,5.76,13.68,1.67h11.05l13.92-.48,15.14-3.61,21.86-11.53,14.41-2.88,12.24-2.41,9.36,3.13,13.68-.71,13.45,1.69,11.05,6.49,17.29,1.67,22.57,6.97,12.24,1.67,18.96-3.36,24.26,1.69,10.56,4.07,5.77,9.84-1.21,12.72-2.88,15.6-5.76,18-8.16,22.57-8.16,24.73-8.65,22.57-5.76,15.6-19.69,30.74-23.78,30-21.36,29.53-27.13,27.12-24.97,21.13-15.85,16.8-8.39,27.61-11.76,13.93-14.89,10.56-18,14.88-27.61,16.81-23.28,11.76-14.88,17.04-10.57,13.7-10.56,6.49-14.88,7.45-9.6-2.17-18.96-8.65-21.13-13.68-30.97-13.68-34.81-18.25-18-13.68-22.34-18-24.49-20.17-26.41-9.6-23.28-4.09-29.77,6.24-21.13,11.76-18.25,12.72-9.36,23.28-6.49,18.02-7.45,27.6-8.39,16.8-8.4,25.69-1.19,30.74-7.45,18-8.4,28.57-7.45,28.57-13.68,26.65-7.45,26.41-4.32,32.89-11.76,27.61-7.45,15.85-.96,15.85-.96,26.65v46.58l-5.29,19.2,3.13,16.81-1.22,27.61,9.61,22.09,7.45,5.28,13.68-4.33,12.71-11.53,18.25-22.09,15.85-25.45,6.24-21.13-4.07-17.04-5.29-21.13-6.49-25.45-6.24-26.64-3.36-20.18v-18.96l4.32-21.36,10.56-32.66,10.56-17.04,9.61-8.64,7.43-11.53,13.7-1.21,6.49-4.07,9.6-8.65,10.56-9.36,9.6-12.72,4.07-14.86,3.37-12.72.96-17.04,3.13-14.88,7.45-9.36,7.45-2.17,9.6,3.13,13.7,7.45,14.88,17.04,15.85,23.28,18,21.13,19.21,17.04,17.04,13.68,16.76,7.43,5.28,10.57-5.28,5.29-18.02-4.09-25.45-2.17-32.89-6.49-31.69-6.24-38.17-1.21-22.32,1.21-17.03,10.56-18,15.85-14.89,25.45-11.53,28.81-1.19,21.13,6.49,38.17,14.88,48.74,7.45,38.17,9.36,37.21,6.49,26.19,3.13,24.49,8.39,27.61,6.49,42.26,6.24,14.88,16.08,12.72,14.89,14.86,16.8,25.46,11.76,29.77,18,26.41,26.42,25.45,19.2,11.76,12.71.96,10.56-3.13,6.49-14.86,7.2-12.72,4.32-18v-41.31l-5.28-11.76c-.96,0-.96-7.43-.96-8.39l-2.17-7.43-8.65-12.71-15.85-15.86-29.53-12.71-10.8-3.37-1.92-18,.96-11.53-20.17-23.3-12.72-29.78-10.57-42.27-8.64-39.13-14.64-30.74-5.28-37.21,8.39-22.32,14.89-8.4h11.52l17.04,14.89,24.49,14.89,25.45,9.36,61.45,29.77,29.78,17.04v15.85l27.37,15.84,35.06,11.76h73.23l-5.28,13.7-3.11,7.43,9.36,17.77,18,26.65,28.82,28.56,34.81,38.19,29.77,26.4,55.71,42.74,45.14,24.24,33.85,18.02,43.46,29.53,40.09,28.57,34.58,29.29,36.01,48.74,1.67,20.39,8.16,21.14,22.09,15.85,20.18,7.92,12.49-1.7,9.87-9.59,14.16-15.12,3.37-20.4,16.8-29.05,3.59-22.34,2.66-24.72,1.67-19.46,5.53-12.22,11.27-5.53h10.82l.71,8.16-7.9,8.64-6.97,18.72-5.29,11.53v14.16l-1.91,30.01-4.31,15.12-13.22,22.8-17.78,29.31-17.74,31.92-10.55,41.54-5.29,43.46,5.29,48.5,6.97,28.34,16.8,37.21,21.36,44.18,16.8,34.57,23.04,36.27,27.35,33.62,5.29,11.52v7.92l-3.59,9.84-9.6,15.85-15.12,21.13-30.99,39.87-30.99,33.59-28.33,31-12.23,7.2-24.98,9.6-14.89,14.18-7.93,16.08-17.76,22.08-20.14,22.08-24.73,25.69-15.14,26.41-8.88,26.65-5.28,22.08.96,17.77,10.56,11.28h38.91l16.78-1.67,17.56-10.55,23.04-10.57,3.58-8.88h7.93l12.23-5.29,11.53-10.79,6.25-42.26-3.62-8.91-1.67-8.88,6.25,1.67,6.94,1.92,7.22-5.29,11.53-7.2,12.23-15.85,15.12-21.36,7.93-19.44,1.67-15.86,9.86-7.21,14.16-7.91,11.53-6.97,9.6-19.44,20.42-21.35,38.15-35.31,29.04-19.44,29.33-16.08,6.93-6.97,2.66-7.21,6.21-7.91-4.33-10.55-.92-19.46-3.87-18.22-4.57-10.56-10.08-17.29-16.07-20.18-7.91-15.12-1.69-15.86v-21.35l3.58-12.23,9.6-32.89,9.83-15.85,10.58-6.24,19.43-12.24,23.05-19.69,30.99-26.4,21.13-22.09,21.35-24.73,22.09-24.97,15.86-28.09,13.2-24.02,12.49-27.35,8.88-30.27,2.66-28.07,1.67-21.36,7.21-6.97,7.91-1.91,6.97,4.58,6.24,14.88,1.67,20.39,2.91,19.44-1.91,13.23-1.7,20.4v43.46l5.28,34.33,6.21,8.88,5.29-.73,2.63-6.24-3.59-14.16v-24.03l7.21-20.17,3.37-29.29,3.58-20.42,4.59-9.6h5.28l4.31,4.32,4.33,16.81,3.58,16.08-1.67,25.45-5.29,34.58-16.07,33.63-14.86,31.92-8.91,27.37-1.67,16.81,1.67,19.44,6.21,18.72h11.54l6.01-8.16-3.39-8.88-2.62-15.86,10.55-14.18,12.26-16.81,8.16-15.84,19.43-31,15.86-28.34,6.97-30.99,6.23-40.81v-40.58l-7.9-28.34-15.86-22.09-1.92-10.55,7.22-3.59,8.9,4.31,11.53,14.18,14.16,25.68,6.01,29.99,3.59,39.86,8.9,27.61.96.73,12.23,27.37,7.91,2.88,3.58-7.2-.95-4.33-6.02-20.39-.95-20.4.95-30,5.29-33.62v-16.81l-1.91-14.16-14.18-28.35-12.24-20.4,4.33-7.91,16.84-3.59,23.01-10.55,24.73-13.23,22.09-19.44,28.34-38.16,16.07-31.69,13.22-30.25,4.33-48.5.96-43.46-6.97-53.78-8.16-38.9-6.97-39.86-4.33-41.53,3.39-26.41,7.2-32.89,14.88-32.66,21.35-33.61,7.92-21.36,1.67-10.56-6.94-9.6-9.81-4.6v15.14l-7.92,8.88-14.16,21.13-7.92,5.28-22.09,26.65-8.87,14.16-10.56,23.78-11.53,1.92-10.56-6.24-6.25-28.34,1.7-32.65,7.21-30.26,17.55-28.34,35.5-53.06,21.17-43.22,2.62-30.26-3.37-9.6-6.21,6.24-10.56,26.41-16.08,26.65-23.79,19.46-27.35,26.41-40.81,47.78-7.91-.73-2.63-8.16-.96-19.46,2.63-36.25,12.49-40.57,22.09-45.14,29.29-36.25,36.25-30.97,3.37-7.2-4.33-3.36-18.47,9.6-15.15,9.84-25.68,22.09-31.92,28.34-22.83,30.97-22.32,40.57-12.23,32.89-3.59,32.66-1.7,44.18,10.56,46.1,10.56,39.86,20.4,62.67,13.22,75.15,7.92,57.37v31l-3.39,32.65-5.25,26.68-9.87,29.99-37.21,46.81-37.95,34.57-48.73,27.37-46.82,2.63-6.21-22.82-16.8-32.89-23.05-31.69-15.12-18.7-20.17-27.37-43.49-41.52-44.16-36.25-19.43-15.15-61-41.3-87.63-73.48-47.8-59.3-52.32-85.71-14.18-51.38,3.58-31.93,7.21-6.24,18.51,12.48,29.29,14.16,23.79-.96,27.34,12.49,29.3,17.77,15.12,12.24,19.46,13.45,20.17,2.65,4.57-8.88-5.29-.96-6.23,2.65-9.83-6.24-8.66-13.2-12.46-20.42-24.02-22.08-23.76-8.88-13.23-2.65,2.66-6.97h18.47l21.36,6.97,30.97,20.4,14.19,6.24,5.27-7.21-8.91-12.24-24.01-21.38-37.21-19.44-44.92-17.52-8.87-7.2,8.87-6.24,20.18,9.84,37.24,6.24,39.83,15.85,21.13,10.56,37.21,5.28,26.67-3.59,14.86-6.97,20.42-12.49,8.9-8.64.96-6.24-8.26.67-7.89,8.16-26.42,8.65-23.05,3.59-19.46-2.65-18.72-14.88-16.8-19.69-20.17-14.88-30.25-6.24-29.05-9.84-12.49-7.93.96-6.95,11.53,1.67h25.68l25.67-1.67h26.42l14.18-2.65,11.53,9.6,18.47,4.57h15.12l6.97-5.28-12.23-3.61-15.12-9.84-15.86-14.88-25.68-13.45-21.13-2.65-19.43-2.65-7.22-4.32,14.19-7.93h23.02l17.78,5.28,17.54,8.9,28.33,12.24,28.33.96,15.12-7.2,4.33-9.61-11.53-5.28-23.76-.96-20.42-6.97-17.74-15.12-19.46-9.84-25.67-4.32-22.09-7.93-9.6-12.48,1.67-6.24,14.19,2.88,17.76,5.28,10.56,7.93,15.12,1.67,1.67-7.93-15.84-12.48-4.59-11.28,21.35,3.36,20.17,10.56,25.68,2.88,9.86,18.48,26.4,15.85,1.44-.25,5.77-2.4,6.97-4.32-3.39-5.28-9.86.71-8.88-12.24-17.78-27.37-30.96-27.6-31.69-14.16-8.9-10.56-19.46-23.05-17.76-9.6-2.63-8.88,7.9-5.28,18.74,4.32,36.97,10.56,17.78,6.24,11.53,16.08,18.47,9.61h14.18l18.73,5.28,20.39-3.61,7.93-6.97-11.53-9.84-16.8-4.32-19.46-2.65-11.54-9.84-15.12-22.09-3.58-14.16-19.46-17.54-21.13-13.45-24.03-14.89-26.4-24.72-1.67-7.21h5.98l34.58,27.37,35.31,20.4,18.73,14.16,23.79,22.08,21.35,11.52,12.26,3.61,6.23-9.84-8.87-3.36-18.51-16.81-5.28-18.72-19.43-21.13-16.08-13.45-7.93-20.17-27.35-40.81-37.21-32.66-1.7-10.56,13.2,1.67,18.74,9.61,29.99,12.48,30.99,1.69,23.05,10.8,24.72,4.32,21.13-6.24-1.67-8.88-24.02-5.29-21.14-9.6-42.49-20.4-23.02-12.48-12.26-14.89,4.33-5.29,6.23,4.32,9.6,3.61,12.49.96h20.42l17.51-1.92,26.68-1.67,20.39,7.93,21.13,15.12,8.9,2.65.96-7.93-7.22-7.2-21.13-19.46-32.88-16.81-23.76-2.65-45.14-2.65-10.55-12.48-23.04-23.05-25.68-17.52-9.6-8.88,7.93-6.24,12.23,5.28,22.08,11.53,24.97,8.88,33.62,7.93h29.05l24.02,26.65,19.46,11.52,6.97-7.2-26.42-38.9-41.54-30-34.58-8.16-29.29-30.74-25.68-15.12-35.29-8.88,19.46-16.8,34.55-11.53,25.68-7.93,6.01-7.91-3.36-6.24-14.19-3.59-13.42-2.65-99.87,1.92-17.76-19.69-20.18-13.2-25.67-11.53-33.63-5.29h-29.05l-7.91-10.56-27.37-29.29-32.89-30.03-20.17,33.62-.96,10.56,9.61,12.48.96,10.56-6.95,6.24-22.34,1.67-40.58-11.53-39.86-8.6-18.5.71-30.25,6.24,3.59,10.57,16.81-.73,6.97,1.21h0Z"/><path class="cls-1" d="m787.01,99.56l-1.93-20.4-29.05-35.29-8.88-2.65-6.24,8.88.96,10.57-9.84,8.87-.96,12.26,11.53,6.24,16.08,11.52h28.34Z"/><path class="cls-2" d="m730.34,76.51l.71-1.67"/><path class="cls-3" d="m1033.61,1216.98l-38.91-50.43-33.63-49.46-24.97-38.89-9.59-26.65-5.28-25.69-6.26-17.52-9.83-4.55-9.62,2.63-3.35,16.81,6.98,29.29,16.8,42.5,21.12,34.32,24.01,30.26,26.42,26.41,15.84,15.12,30.29,15.85h0ZM503.69,313.98l-9.36,12.96-3.85,13.2,1.69,9.36,4.57,2.88,13.2-2.88,9.84-5.51,6.97-6.98,3.84-12.96-3.84-6.24-8.4-6.97-6.97-.71-7.68,3.84h0Zm252.1-34.83h10.8l10.09-3.83.71-10.09-3.84-11.52-4.57-10.8-9.12-6.25-11.76-2.17-16.1.73-10.08,8.4-4.57,9.36,3.13,8.4,10.8,6.24,11.52,6.24,12.97,5.28h0Zm865.54,940.7l-6.24,6.24,1.23,11.28,1.88,20.17,2.18,21.39,1.43,18.46-.95,21.14-.96,23.53-4.33,21.13-5.06,18.48-8.64,18.02-11.26,18.48-11.54,18.03-12.24,16.55-11.27,14.88-6.24,11.28-4.58,10.32.95,7.69,5.81,2.63,10.79-2.63,21.1-20.18,18.48-21.61,12.27-17.3,10.82-20.14,7.16-18.48,6.29-21.13,4.53-24.73.48-11.28v-45.14l-3.61-22.32-5.06-23.3-6.21-19.44-3.1-9.84-4.11-2.17h0Zm-932.05,145.26l12.26,13.7,40.33,35.05,22.34,19.92,19.92,18.03,16.08,15.11,3.13,5.02,2.17,3.62-6.25-.47-16.08-10.1-27.13-17.99-42.01-28.34-17.04-11.54-18-14.12-19.69-18.03-14.41-11.27-17.29-16.81-11.28-11.75-6.97-10.82-2.63-12.97.48-12,4.55-4.58,7.93.48,12.49,7.46,13.44,12.97,9.86,11.97,10.56,10.58,10.32,12.72,12.96,14.16h0Zm-90.99-544.3l.48-6.49,4.32-4.8,15.12-6.24,31.45-9.84,31.45-3.85h19.21l15.85,3.37,14.88,7.45,11.76,11.53.73,6.47-1.44,4.57-5.05.96-7.68-.96-11.76-3.37-11.05-3.35-13.68-1.45h-17.04l-14.41-.23-12.72,1.21-14.16,2.39-11.28,3.13-11.04,2.4-7.21.48-5.03-.71-1.69-2.65h0Zm403.36,541.9l-4.58,12.72-1.91,10.07-3.83,18.28-1.23,14.63,3.39,4.1,6.97.95,3.58-2.89,1.67-7.67,5.33-11.05,5.25-6.01,5.77-5.28,3.59-8.39-.97-14.18-5.01-7.43-2.91-2.67h-6.73l-5.01,1-3.39,3.83h0Zm9.87,437.23h-4.58l-3.62-10.8-.25-12.26,2.63-16.81,6.01-23.04,9.87-14.18,8.88-11.03,7.91-.97,2.15,7.2-4.79,15.38-6.76,18.72-3.33,9.12-6.25,14.18-4.79,16.56-1.43,4.79-1.67,3.14h0Zm309.45-211.77l-5.73,7.2.95,11.53,10.07,13.92,1.48,15.12,2.35,4.33,4.59,1.21,5.01-2.89,1.48-6.73,2.37-7.43.99-7.93v-10.57l-1.47-7.91-5.53-6.97-4.79-4.32-5.76-.48-6.01,1.92Zm-441.53,800.26l-9.84,9.82-3.61,7.21-1.19,6.25.96,5.03,3.13,2.4h2.88l6.72-1.44,6.95-4.55,4.32-6.5,3.61-6.95,2.15-8.88-.67-5.03-2.67-2.17-5.28.23-7.45,4.58h0Zm72.26-105.18l-8.18,5.05-4.06,5.06-.48,4.31,2.39,4.33,4.1,1.18,5.54-1.91,4.53-2.65,3.66-5.05,2.15-5.28-.75-4.32-2.88-1.69-6.01.96h0Zm135.44-134.71l-33.15,33.4-27.34,29.52-19.46,21.61-.99,6.01,2.15,3.59,4.57.25,6.97-4.57,12.49-11.28,15.88-14.4,17.03-17.77,16.07-15.59,14.16-16.59,10.6-15.6,2.83-6.97-2.83-3.58-3.39-.74-9.39,6.01-6.2,6.71h0Zm80.17-48.7l-4.81,5.02-1.43,4.09.75,4.09,3.31,1.93h2.91l4.33-4.81,4.79-4.32,2.14-3.36-.19-2.63-2.43-1.22-5.25-.25-4.11,1.47h0Zm-116.23-182.73h-3.81l-1.67,2.17-.48,7.17v12.02l2.39,12.97,4.1,9.36,8.64,14.16,5.76,8.4,3.11,1.41,1.7-.21.92-2.17-2.15-11.05-2.15-5.51-.22-4.09-.25-11.53-2.63-14.4-3.85-10.8-5.27-6.23-4.12-1.7h0Zm-548.59-16.1l-8.64,1.67-7.45,2.41-2.17,3.13-.23,4.32,3.84,4.8,2.63,2.17,5.77,1.67,6.49-.22,3.11-.97,3.84-4.57,2.17-5.05.96-4.07-.73-3.62-3.11-1.91-6.49.23h0Zm245.86,27.38l-21.13-6.73-3.13,1.21-.71,5.05,2.4,4.55,16.08,5.29,22.57,6.97,28.57,7.19,12.49.97,12.96.71,12.49,2.17,14.16,2.4,8.16-.47,2.65-3.37v-4.57l-2.15-2.88-7.45-1.92-13.2-2.88-16.33-1.19-17.29-2.65-19.94-2.15-12-1.69-9.84-2.17-9.36-3.84h0Zm193.77,6.97l-6.49,4.8-1.23,4.57,1.23,4.07,3.83,1.69,6.97-1.69,4.8-3.84,2.63-4.8v-3.84l-1.67-2.17h-5.29l-4.77,1.21h0Zm-647.31-457.15l-6.97-1.45-2.88.73-1.21,4.33,1.45,7.43,3.59,3.36,5.05.95,4.09-3.1.71-4.8-.71-4.07-3.13-3.37h0Zm-141.17-300.84l-2.65,18.73.48,18.96,2.88,16.33,5.53,17.29,5.53,11.04,3.84,8.4,2.4,4.55,3.11,2.65h1.69l1.44-2.17,1.21-6.47-3.36-22.32-2.4-13.7-5.53-15.6-4.57-14.64-.23-11.53-2.65-11.28-2.65-2.4h-2.63l-1.44,2.17h0Zm200.72-23.3l1.19-3.84-.96-4.8-5.76-5.29-11.04-5.03-15.37-6.72-13.2-6.49-14.41-3.61-8.4-3.11-7.68.23,5.76,4.32,16.81,10.08,14.89,11.05,15.12,9.36,6.49,2.88,9.35,1.44,7.21-.48h0Zm-210.56-119.81l-7.21,12.49-.23,8.64,2.88,2.4,4.32-1.67,4.32-6.01,2.88-6.72,2.17-5.05v-7.2l-3.36-2.17-3.61,1.69-2.15,3.59Zm687.39-519.81l-8.4,1.44-11.04,10.57-21.38,34.09-22.57,43.7-12.71,25.21-14.18,29.29-17.28,26.65-4.32,10.09.71,3.59,4.57.25,14.16-5.53,20.4-21.36,26.89-37.71,16.81-31.21,15.12-24.98,11.28-29.52,5.05-18.5.48-10.32-3.61-5.76h0Zm-399.52,404.32l4.8,1.93,1.45,5.76-3.61,20.65-10.09,28.33-8.88,27.13-15.6,19.44-7.93,6.01-8.4,3.13-4.8-3.37-.48-6.24,6.73-7.2,6.95-11.53,8.88-19.44,5.29-18.48,4.8-18.25,9.35-17.52,6.25-8.88,5.28-1.45h0Zm-286.66-60.01l-10.09,17.52-4.57,24.01-1.21,12.74v9.35l2.17,4.8,6.24-1.67,11.53-17.77,6.47-21.13,5.05-18.73.25-13.2-2.88-4.32-7.68,2.17-5.28,6.24h0Zm127.24,36.25l.73,5.28,2.87,3.61,6.49,6.49,6.98,5.76,8.15,4.57,5.77,3.59,2.4-.23,1.21-2.17-.25-4.07-3.13-4.57-5.03-6.01-8.4-5.05-5.29-4.8-4.55-4.07-4.09-.73-2.4-.25-1.44,2.65h0Zm-71.79-111.4l-12,1.44-5.77,4.09-1.92,6.47,1.69,4.81,6.72,2.63,11.04-1.19,11.53-4.33,3.36-5.51-.23-4.09-3.84-3.59-4.33-1.21-6.24.48h0Zm599.53,109.24l7.93,2.17,2.4,4.32.96,9.6,1.19,10.09-2.39,7.2-5.05,2.89-12.24.23-8.16-1.92-4.58-6.01-3.83-4.8v-7.69l5.99-7.68,9.13-7.2,8.64-1.21h0Zm-207.93-619.45l11.05-9.36,20.42-9.83,20.4-9.13,19.44-9.13,8.88-4.32,6.73-.96,5.51,1.21,4.32,6.97-2.88,5.03-5.51,1.45-6.73,1.67-7.45,6.24-16.56,10.09-22.8,6.24-14.16,3.61-13.7.96-6.97-.73h0Zm-40.81,40.82l-3.61,5.76-.48,4.32,3.13,3.61,3.84,1.92,4.8-.23,2.4-1.21,1.69-5.51-.48-6.25-1.21-3.59-3.36-.73h-3.84l-2.88,1.92h0Zm47.06,42.01l-3.36.25-2.65,2.88-.48,4.8,1.44,3.85,2.65,1.43h4.57l3.59-1.67.73-3.61-1.21-4.32-1.69-2.63-3.59-.97h0Zm140.21,20.9l24.01-17.04,14.64-9.13,8.88-5.51h3.13l.48,6.47-6.01,4.8-2.88,9.86-7.45,11.52-13.44,6.47-13.68,3.14h-12.26l-2.15-4.09,3.11-4.33,3.61-2.15h0Zm80.91,8.4l7.93-10.09,9.13-8.64,8.16-5.51,6.01-.49,4.07,2.65v7.45l-2.15,8.16-9.13,8.65-10.8,6.72-11.04,2.88-5.29-1.69-.71-4.32,3.84-5.76Zm1.44,42.25l3.13-5.51,7.45-3.36,12.96-6.25,14.89-9.12,6.97-5.03,10.56-5.06,6.73,1.69v7.21l-2.65,6.49-9.36,11.04-12.96,6.24-12.97,5.28-13.45.25h-8.39l-2.89-3.85h0Zm-25.93-231.2l-7.68,2.63-1.69,5.29,3.13,5.76,8.4-.48,6.97-2.65,5.03-5.76-2.15-4.8-6.73-2.4-5.28,2.4h0Zm135.41-43.94l-4.31-3.13,3.11-5.75,12.01-1.21,6.49,2.15,5.06,2.65.21,4.32-4.31,1.92-6.72.48-6.49-.48-5.06-.96Zm19.66,27.37l7-.23,5.29,1.21,2.62,1.67-.95,2.65-3.85,4.57-5.27.47-6.25-.95-3.61-1.69-2.63-3.13,3.1-2.65,4.54-1.92Zm-1.4,123.42l12.74-5.28,11.02-5.76,11.54-6.49,8.83-3.13,5.33-1.44,5.25-7.93-3.83-3.61-7.43.48-8.91,1.93-9.84,3.84-6.97.48-.95-5.28.95-10.09-4.05-4.09h-5.81l-3.79,4.8-3.66,4.81-5.73,6.24-4.1,10.32v9.13l1.95,5.03-.47,5.28,3.58,1.21,4.33-.48h0Zm-4.81,494.36l6.21-.48,5.33,4.32.19,3.61-1.67,2.17-4.81,1.43-6.2-.48-4.11-4.07,1-3.59,4.06-2.89h0Zm10.07-13.92h7.21l4.81-5.29-.48-3.84-4.81-3.13h-5.06l-3.83,1.21-1.7,3.59v5.29l3.85,2.17h0Zm7.96-45.38l5.25-.96h5.06l3.11,2.63.7,4.09-1.63,3.37-4.85,2.39-5.01.73-5.27-1.21-1.7-3.59v-4.32l4.33-3.13h0Zm5.49-19.69l7.21.25,6.49-1.93,2.62-4.07-1.89-5.05-5.27-2.63-6.28.95-5.73,2.65-1.21,4.32.25,2.88,3.81,2.65h0Zm14.42-50.9l7.43-2.17h5.76l2.63,3.11-.96,5.53-3.58,4.8-3.37,4.33-6.69,1.44h-6.73l-5.76-2.88-.48-4.57,4.06-4.32,3.1-3.61,4.59-1.67h0Zm7.43-37.94l7.43-.96,6.73,1.44,2.88,4.09v4.07l-3.13,5.05-5.53.96-5.76,1.45-7.21-.25-3.11-3.61.48-5.28,2.43-3.61,4.79-3.36h0Zm6.76-12.72h7.16l5.78-1.92,7.43-3.13.96-6.24-2.63-5.05-6.26-2.15-6.47.23-4.57,1.92-4.09,2.17-4.8,4.32-.95,4.57,1.95,3.59,3.58,1.21,2.91.48h0ZM64.07,1226.82l6.25.73,1.67,6.24-4.32,5.28-7.21-1.69-3.59-6.97,7.2-3.59Zm926.79-654.26l11.52-6.01,5.49-1.21,6.76.73,2.63,2.4v2.65l-2.63,4.32-4.58,3.84-6.72,2.41-7.93.7-6.49-.95-1.66-3.85.96-3.11,2.65-1.92h0Zm10.32-19.21l8.38-3.61,3.36-3.84,1.7-3.84v-3.61l-1.43-2.15-3.63-.25-5.01.48-5.06,1.21-4.33,2.63-2.15,2.65-.75,4.57.97,4.07,3.84,1.21,4.11.48h0Zm1.89-33.14l7.21-2.63,5.29-3.61,1.19-3.11.75-5.28-1.23-3.37-3.37-.96-5.06.25-5.98,1.19-4.09,2.89-2.88,2.87-.48,4.8.73,3.85,3.87,2.15,4.05.96h0Zm0-85.71l6.02-.25,3.59,1.21.99,3.11-1.96,3.13-3.1,3.36-5.06,1.21h-5.28l-3.36-3.11v-3.61l3.15-3.13,5.01-1.92h0Zm.48,51.62l7.48-3.61,5.73-5.05.48-7.43-.48-4.57-3.85-2.17-4.31-1.19-3.58.23-1.96,2.41-.95,3.35-.95,4.33-2.15,1.44h-4.11l-1.18,2.4.48,4.32,3.1,3.85,3.14,1.18,3.1.49Zm1-77.55l5.25-3.61,5.54.25,3.33,4.07-.7,4.09-2.63,3.59-4.31,1.69-4.1.97-3.62.48-4.77-.48-1.23-2.89,1.23-3.84,2.85-2.63,3.15-1.69h0Zm.96-19.21l4.29-1.67,4.54-4.09.27-3.85-.47-4.07-2.91-1.69-4.54.73-2.91,1.69-3.1,3.35-.25,4.09v3.85l2.15,1.19,2.91.48h0Zm-10.35-38.42l2.91-1.44,3.81-.23,3.15,1.92.67,2.88-1.15,4.32-3.15,2.4-2.85,1.69-3.85.48-3.11-1.92-.73-3.37,1.4-2.87,2.91-3.85h0Z"/></svg>